# xmcd CD database file
#
# Track frame offsets:
#	150
#	21493
#	52171
#	81178
#	88422
#	118460
#	149027
#	172321
#	210550
#	238999
#	254715
#	318802
#
# Disc length: 4571 seconds
#
# Revision: 0
# Processed by: cddbd v1.5.1PL2 Copyright (c) Steve Scherf et al.
# Submitted via: CDex 1.51
#
DISCID=c811d90c
DTITLE=Miles Davis - Cafe Bohemia 1958
DYEAR=1958
DGENRE=Jazz
TTITLE0=Miles Davis Quintet: Miles Davis (trumpet), John Coltrane (tenor saxophone), Bill Evans (piano), Paul Chambers (bass), Phily Joe Jones (drums) - Four (Miles Davis)
TTITLE1=Miles Davis Quintet: Miles Davis (trumpet), John Coltrane (tenor saxophone), Bill Evans (piano), Paul Chambers (bass), Phily Joe Jones (drums) - Bye Bye Blackbird (Ray Henderson-Mort Dixon)
TTITLE2=Miles Davis Quintet: Miles Davis (trumpet), John Coltrane (tenor saxophone), Bill Evans (piano), Paul Chambers (bass), Phily Joe Jones (drums) - Walkin' (Richard Carpenter)
TTITLE3=Miles Davis Quintet: Miles Davis (trumpet), John Coltrane (tenor saxophone), Bill Evans (piano), Paul Chambers (bass), Phily Joe Jones (drums) - Two Bass Hit (John Lewis, Dizzy Gillespie)
TTITLE4=Miles Davis Sextet: Miles Davis (trumpet), Julian "Cannonball" Adderley (alto saxophone), John Coltrane (tenor saxophone), Bill Evans (piano), Paul Chambers (bass), Jimmy Cobb (drums) - Walkin' (Richard Carpenter)
TTITLE5=Miles Davis Sextet: Miles Davis (trumpet), Julian "Cannonball" Adderley (alto saxophone), John Coltrane (tenor saxophone), Bill Evans (piano), Paul Chambers (bass), Jimmy Cobb (drums) - All of You (Cole Porter)
TTITLE6=Miles Davis Sextet: Miles Davis (trumpet), Julian "Cannonball" Adderley (alto saxophone), John Coltrane (tenor saxophone), Bill Evans (piano), Paul Chambers (bass), Jimmy Cobb (drums) - 'Round Midnight (Thelonius Monk, Cootie Williams-Bernie Hani
TTITLE6=ghen)
TTITLE7=Miles Davis Sextet: Miles Davis (trumpet), Julian "Cannonball" Adderley (alto saxophone), John Coltrane (tenor saxophone), Red Garland (piano), Paul Chambers (bass), Jimmy Cobb (drums) - Weirdo ("Sid's Ahead") (Miles Davis)
TTITLE8=Miles Davis Sextet: Miles Davis (trumpet), Julian "Cannonball" Adderley (alto saxophone), John Coltrane (tenor saxophone), Red Garland (piano), Paul Chambers (bass), Jimmy Cobb (drums) - Bye Bye Blackbird (Ray Henderson-Mort Dixon)
TTITLE9=Miles Davis Sextet: Miles Davis (trumpet), Julian "Cannonball" Adderley (alto saxophone), John Coltrane (tenor saxophone), Red Garland (piano), Paul Chambers (bass), Jimmy Cobb (drums) - Straight, No Chaser (Thelonious Monk)
TTITLE10=Miles Davis Sextet: Miles Davis (trumpet), Julian "Cannonball" Adderley (alto saxophone), John Coltrane (tenor saxophone), Wynton Kelly (piano), Paul Chambers (bass), Jimmy Cobb (drums) - Bags' Groove (Milt Jackson)
TTITLE11=Miles Davis Sextet: Miles Davis (trumpet), Julian "Cannonball" Adderley (alto saxophone), John Coltrane (tenor saxophone), Wynton Kelly (piano), Paul Chambers (bass), Jimmy Cobb (drums) - All of You (Cole Porter)
EXTD=YEAR: 1958
EXTT0=
EXTT1=
EXTT2=
EXTT3=
EXTT4=
EXTT5=
EXTT6=
EXTT7=
EXTT8=
EXTT9=
EXTT10=
EXTT11=
PLAYORDER=
